<?xml version="1.0" encoding="UTF-8"?>
<svg id="Layer_1" data-name="Layer 1" xmlns="http://www.w3.org/2000/svg" viewBox="0 0 720.8 480.29">
  <defs>
    <style>
      .cls-1 {
        fill: #4d4d4d;
        stroke-width: 0px;
      }
    </style>
  </defs>
  <path id="Icon_awesome-road" data-name="Icon awesome-road" class="cls-1" d="M717.1,423.59L542.24,23.35c-5.87-14-19.49-23.17-34.67-23.35h-122.21l3.22,28.94c.59,5.49-3.39,10.42-8.88,11.01-.36.04-.72.06-1.09.06h-36.44c-5.52.01-10.01-4.45-10.03-9.98,0-.36.02-.73.06-1.09l3.22-28.94h-122.21c-15.18.18-28.8,9.35-34.67,23.35L3.71,423.59c-9.27,20.02-.56,43.76,19.46,53.03,4.79,2.22,9.97,3.46,15.24,3.67h246.16l12.86-122.21c1.07-10.19,9.66-17.92,19.91-17.91h86.06c10.24,0,18.84,7.73,19.91,17.91l12.86,122.21h246.19c22.04-.84,39.24-19.38,38.4-41.43-.2-5.28-1.45-10.47-3.67-15.27ZM325.9,88.99c.54-5.09,4.85-8.95,9.97-8.94h49.14c5.12-.01,9.43,3.85,9.97,8.94l5.76,54.51c.87,8.25-5.11,15.64-13.36,16.51-.52.05-1.04.08-1.56.08h-50.75c-8.28.01-15-6.69-15.01-14.96,0-.54.03-1.09.09-1.63,0,0,5.76-54.51,5.76-54.51ZM394.98,300.16h-69.15c-11.05,0-20.01-8.94-20.02-19.99,0-.71.04-1.43.11-2.14l6.43-60.04c1.07-10.19,9.66-17.92,19.91-17.91h56.47c10.24,0,18.84,7.73,19.91,17.91l6.43,60.04c1.17,10.99-6.78,20.84-17.77,22.01-.71.08-1.42.11-2.14.11h-.19Z"/>
</svg>