<?xml version="1.0" encoding="UTF-8"?>
<svg id="Layer_1" data-name="Layer 1" xmlns="http://www.w3.org/2000/svg" viewBox="0 0 1045 351.6">
  <defs>
    <style>
      .cls-1 {
        stroke: #7b8489;
      }

      .cls-1, .cls-2, .cls-3, .cls-4 {
        fill: none;
        stroke-width: 2.2px;
      }

      .cls-2 {
        stroke: #ffdf8b;
      }

      .cls-3 {
        stroke: #fadb8a;
      }

      .cls-4 {
        stroke: #806716;
      }

      .cls-5, .cls-6, .cls-7, .cls-8 {
        stroke-width: 0px;
      }

      .cls-6 {
        fill: #febe17;
      }

      .cls-7 {
        fill: #f5f7fc;
      }

      .cls-8 {
        fill: #011015;
      }
    </style>
  </defs>
  <g id="Group_11964" data-name="Group 11964">
    <path id="Path_15967" data-name="Path 15967" class="cls-2" d="M464.23,128.09l16.18-26.14"/>
    <path id="Path_15968" data-name="Path 15968" class="cls-4" d="M91.18,189.78c-2.07,13.68-4.05,27.88-5.95,42.59-1.4,9-.57,18.21,2.42,26.82,5.83,15.33,11.14,30.42,15.94,45.26,2.69,8.39,5.46,8.41,8.31.06,4.47-13.15,9.2-26.25,14.2-39.31,3.58-9.66,4.97-20,4.09-30.26-1.02-14.09-2.78-28.13-5.27-42.04"/>
    <path id="Path_15969" data-name="Path 15969" class="cls-3" d="M124.91,192.95c7.8-6.87,15.95-13.33,24.43-19.35,8.64-5.67,16.18-12.85,22.26-21.2,18.68-28.56,19.2-56.81,1.55-84.75-8.07-13.7-20.58-24.22-35.46-29.82C43.56,3.97-14.03,128.54,73.2,178.75c5.91,3.43,11.9,7.1,17.98,11"/>
    <path id="Path_15970" data-name="Path 15970" class="cls-1" d="M124.9,192.95c-3.21-21.91-6.1-43.52-8.68-64.85-.08-2.98-1.04-5.87-2.75-8.31-2.67-2.68-6.78-3.28-10.1-1.49-1.61.59-2.76,2.02-2.98,3.72l-9.22,67.76"/>
    <path id="Path_15971" data-name="Path 15971" class="cls-1" d="M121.19,88.72l-26.42-.12c-1.35,0-2.45,1.07-2.48,2.42v1.09c-.06,9.72,4.9,17.63,11.1,17.67l8.94.06c6.19.04,11.27-7.78,11.35-17.49v-1.11c.03-1.37-1.05-2.51-2.42-2.54-.02,0-.04,0-.06,0"/>
  </g>
  <path id="Path_15972" data-name="Path 15972" class="cls-6" d="M105,0h6.82c43.15,4.47,73.45,24.82,90.9,61.07,24.86,51.52,11,103.73-16.8,150.62-27.94,47.23-52.04,92.65-72.29,136.27-1.49,3.16-5.26,4.51-8.42,3.02-1.35-.64-2.43-1.73-3.05-3.08-20.75-44.67-43.86-88.2-69.26-130.41C4.62,170.38-13.67,115.02,12.95,62.19,29.74,26.01,65.17,2.08,105,0ZM91.18,189.78c-2.07,13.68-4.05,27.88-5.95,42.59-1.4,9-.57,18.21,2.42,26.82,5.83,15.33,11.14,30.42,15.94,45.26,2.69,8.39,5.46,8.41,8.31.06,4.47-13.15,9.2-26.25,14.2-39.31,3.58-9.66,4.97-20,4.09-30.26-1.02-14.09-2.78-28.13-5.27-42.04,7.8-6.87,15.95-13.33,24.43-19.35,8.62-5.66,16.15-12.84,22.23-21.18,18.68-28.56,19.2-56.81,1.55-84.75-8.07-13.69-20.57-24.21-35.44-29.81C43.56,3.97-14.04,128.53,73.22,178.75c5.9,3.43,11.88,7.11,17.96,11.03Z"/>
  <path id="Path_15973" data-name="Path 15973" class="cls-5" d="M341.81,115.82l-41.19-.1c-2.95-.11-5.68,1.58-6.88,4.28l-8.56,16.74c-1.31,3.04-4.57,4.75-7.81,4.09-7.99-1.16-16.11-1.08-24.07.25-4.84.78-6.06-.95-3.66-5.21l59.84-105.8c2.26-3.98,6.47-6.45,11.05-6.47,4.56-.01,8.76,2.44,11,6.4l59.85,104.97c2.23,3.88,1.09,5.78-3.44,5.7l-24.68-.5c-3.51.07-6.73-1.95-8.18-5.14l-8.12-16c-.9-2.03-2.94-3.3-5.16-3.22ZM333.81,93.94c.55.04,1.02-.37,1.06-.92.01-.2-.03-.4-.13-.57l-11.1-19.59c-2.11-3.76-4.15-3.74-6.13.06l-9.3,17.61c-1.03,1.99-.45,3,1.73,3.04l23.87.37Z"/>
  <path id="Path_15974" data-name="Path 15974" class="cls-7" d="M124.91,192.95c-3.21-21.91-6.1-43.52-8.68-64.85-.08-2.98-1.04-5.87-2.75-8.31-2.67-2.68-6.78-3.28-10.1-1.49-1.61.59-2.76,2.02-2.98,3.72l-9.22,67.73c-6.08-3.92-12.07-7.59-17.98-11C-14.03,128.54,43.56,3.97,137.68,37.82c14.88,5.6,27.39,16.12,35.46,29.82,17.65,27.94,17.13,56.19-1.55,84.75-6.08,8.35-13.62,15.53-22.26,21.2-8.47,6.02-16.63,12.48-24.43,19.35ZM121.19,88.72l-26.41-.12c-1.35,0-2.45,1.07-2.48,2.42v1.11c-.06,9.72,4.9,17.63,11.1,17.67l8.94.06c6.19.04,11.27-7.78,11.35-17.49v-1.11c.03-1.37-1.05-2.51-2.42-2.54-.02,0-.04,0-.06,0h-.01Z"/>
  <path id="Path_15975" data-name="Path 15975" class="cls-6" d="M464.23,128.1l16.18-26.14,27.35-48.92c.8-1.63,2.47-2.64,4.28-2.61l31-.43c.35,0,.68.19.87.49.18.29.18.65,0,.94l-48.61,86.4c-.9,1.72-2.7,2.79-4.65,2.75l-15.75-.06c-2.17,0-4.22-.98-5.58-2.67-2.45-2.8-4.19-6.14-5.08-9.75Z"/>
  <path id="Path_15976" data-name="Path 15976" class="cls-5" d="M551.84,114.88l1.18,1.8c2.05,3.41,5.82,5.4,9.79,5.14l29.02-.56c1.79-.3,3.48.91,3.77,2.7.06.34.06.68,0,1.02l-.05,12.53c0,2.56-1.28,3.71-3.84,3.44-16.12-1.55-32.86,1.86-47.86-5.5-24.37-11.97-23.07-42.35-3.66-57.66,12.21-9,27.76-12.2,42.53-8.74,11.98,1.67,22.31,9.27,27.47,20.21.41.83,1.28,2.52,2.61,5.08,5.29,10.46,2.07,15.61-9.67,15.44l-48.14-.69c-2.05-.03-3.74,1.61-3.77,3.67-.01.74.2,1.47.61,2.1v.02ZM554.7,97.22l30.87-.25c.62,0,1.11-.5,1.11-1.11h0s-.06-.69-.06-.69c-.13-2.56-1.53-4.88-3.73-6.19-2.68-1.71-5.81-2.58-8.98-2.5l-7.81.12c-6.96.06-12.59,3.99-12.59,8.8l.06.69c0,.62.49,1.12,1.1,1.13,0,0,0,0,.01,0h0Z"/>
  <path id="Path_15977" data-name="Path 15977" class="cls-5" d="M657.99,113.89c-15.19-3.6-28.03-.5-35.9-16.74-6.01-12.28,3.78-22.44,14.63-26.29,17.46-7.53,37.81-2.03,49.11,13.27,1.02,1.23,1.26,2.93.63,4.39-.63,1.45-2.03,2.42-3.61,2.49-9.61.55-19.18-1.51-27.72-5.95-2.19-1.25-4.91-1.11-6.95.37-2.48,1.6-3.86,4.44-3.6,7.38.05,1.59,1.33,2.87,2.92,2.92,18.64.66,30.88,5.85,36.71,15.56,8.31,13.95-6.82,26.47-19.26,29.33-19.06,4.38-33.96-.47-44.7-14.57-1.42-1.84-1.08-4.49.77-5.91.61-.47,1.33-.76,2.09-.85,8.57-1.31,17.33.3,24.86,4.59,1.58.89,3.34,1.4,5.14,1.49,5.21.21,8.25-1.26,9.11-4.4,1.13-2.54-.01-5.52-2.56-6.66-.53-.24-1.1-.38-1.67-.42Z"/>
  <path id="Path_15978" data-name="Path 15978" class="cls-5" d="M850.56,90.64c-1.48-.54-3.09-.58-4.59-.12-7.57,1.52-12.78,8.49-12.09,16.18l.43,29.88c.27,1.67-.86,3.25-2.53,3.52-.3.05-.61.05-.91.01l-22.38.62c-1.76.35-3.47-.8-3.82-2.57-.07-.36-.08-.73-.03-1.09l.06-63.86c0-3.18,1.57-4.61,4.71-4.28,10.51,1.37,21.16,1.24,31.64-.37,11.08-2.1,22.55.29,31.87,6.64,1.53,1.06,3.57,1.03,5.06-.08,10.23-7.17,23.15-9.34,35.15-5.89,36.52,9.42,29.2,40.43,29.51,68.38.23,1.53-.83,2.95-2.35,3.17-.29.04-.58.04-.87,0l-21.45-.69c-1.92-.08-3.44-1.67-3.44-3.6l.25-31.43c.84-7.27-4.37-13.84-11.64-14.68-.34-.04-.67-.06-1.01-.08-1.32-.2-2.67-.05-3.91.43-6.15,2.05-10.17,7.97-9.79,14.44l.06,31.69c.27,1.78-.95,3.44-2.73,3.71-.31.05-.62.05-.93,0h-19.84c-2.14.32-4.14-1.16-4.46-3.3-.05-.37-.06-.74,0-1.1l.19-31.37c.46-6.56-3.81-12.51-10.17-14.19Z"/>
  <path id="Path_15979" data-name="Path 15979" class="cls-5" d="M1045,96.66v12.52l-60.32-.31c-3.31-.04-4.32,1.47-3.04,4.53l1.05,2.42c1.53,3.6,5.08,5.92,8.99,5.89l31.18-.12c1.72-.26,3.33.92,3.59,2.64.05.3.05.6,0,.9v11.69c0,1.86-1.49,3.39-3.35,3.44-20.71.43-56.91,4.28-65.04-22.63-15.94-52.65,68.08-69.39,86.93-20.96ZM985.23,97.03l31.75.12c.34,0,.62-.28.62-.62v-.31c-.04-2.67-1.27-5.17-3.36-6.83-2.31-1.87-5.2-2.87-8.18-2.84h-9.92c-5.8-.48-10.93,3.76-11.53,9.55v.32c0,.34.29.61.63.61,0,0,0,0,0,0h-.02Z"/>
  <path id="Path_15980" data-name="Path 15980" class="cls-5" d="M480.42,102.02l-16.18,26.14c-.88-3.55-3.16-6.59-6.33-8.43-.9-.34-1.9-.27-2.75.19-.86.47-1.48,1.28-1.71,2.23-1.01,4.72-3.04,9.17-5.95,13.02-5.75,7.37-16.38,8.69-23.76,2.94-1.73-1.35-3.18-3.02-4.27-4.92l-35.76-62.59c-.23-.37-.23-.84,0-1.2.24-.38.66-.61,1.11-.6l29.51.8c1.3-.02,2.5.7,3.1,1.86l13.58,25.3c.85,1.57,2.81,2.15,4.37,1.3.53-.29.97-.72,1.27-1.24l14.32-25.61c2.04-3.69,6.68-5.03,10.36-2.99,1.32.73,2.4,1.83,3.09,3.17l16,30.63Z"/>
  <path id="Path_15981" data-name="Path 15981" class="cls-5" d="M786.89,104.87c.07,20.47-19.95,37.14-44.64,37.24-24.69.1-44.82-16.44-44.89-36.92-.07-20.47,19.95-37.14,44.64-37.24,24.69-.1,44.82,16.44,44.89,36.92ZM758.86,105.18c-1.48-9.29-10.21-15.62-19.5-14.14-7.21,1.15-12.88,6.76-14.11,13.96,1.48,9.29,10.21,15.62,19.5,14.14,7.21-1.15,12.88-6.76,14.11-13.96Z"/>
  <path id="Path_15982" data-name="Path 15982" class="cls-8" d="M121.19,88.72c1.37,0,2.48,1.11,2.48,2.48,0,.02,0,.04,0,.06v1.11c-.08,9.7-5.16,17.53-11.35,17.48l-8.94-.06c-6.19-.04-11.16-7.95-11.1-17.67v-1.11c.03-1.35,1.14-2.42,2.48-2.42l26.42.12Z"/>
  <path id="Path_15983" data-name="Path 15983" class="cls-8" d="M124.91,192.95c2.49,13.91,4.25,27.94,5.27,42.04.88,10.27-.52,20.6-4.09,30.26-5,13.06-9.73,26.16-14.2,39.31-2.85,8.35-5.62,8.33-8.31-.06-4.8-14.84-10.11-29.92-15.94-45.26-2.99-8.61-3.82-17.82-2.42-26.82,1.9-14.71,3.89-28.91,5.95-42.59l9.25-67.79c.22-1.7,1.37-3.13,2.98-3.72,3.33-1.8,7.44-1.19,10.1,1.49,1.72,2.44,2.67,5.33,2.75,8.31,2.54,21.33,5.43,42.95,8.65,64.86Z"/>
  <path id="Path_15984" data-name="Path 15984" class="cls-5" d="M796.68,224.19c.67,1.2,2.18,1.63,3.38.96.4-.23.74-.56.96-.96l33.6-60.26c.71-1.36,2.13-2.2,3.66-2.17l31.87-.43c.72-.02,1.31.55,1.33,1.27,0,.23-.05.45-.16.65l-60.88,108.38c-3.52,6.3-11.48,8.55-17.78,5.03-2.11-1.18-3.85-2.92-5.03-5.03l-61.51-108.94c-.27-.51-.08-1.15.43-1.42.15-.08.32-.12.5-.12l32.74.74c1.64-.02,3.16.9,3.91,2.36l32.98,59.95Z"/>
  <path id="Path_15985" data-name="Path 15985" class="cls-5" d="M247.61,164.3c0-1.68,1.36-3.04,3.04-3.04h0l46.93.25c39.57.21,71.53,25.99,71.36,57.59v1.49c-.17,31.64-32.4,57.08-71.99,56.86l-46.93-.25c-1.68,0-3.04-1.36-3.04-3.04h0s.62-109.86.62-109.86ZM283.63,195.36l.12,49.35c0,1.75,1.42,3.16,3.16,3.16l8.56-.06c20.63-.04,37.35-12,37.33-26.72v-2.36c0-14.73-16.8-26.64-37.46-26.6l-8.55.06c-1.74,0-3.16,1.41-3.16,3.16Z"/>
  <path id="Path_15986" data-name="Path 15986" class="cls-5" d="M533.98,239.76l20.21,36.33c.27.55.05,1.22-.5,1.49-.15.08-.32.11-.49.12l-36.71-.5c-1.18.04-2.27-.61-2.79-1.67l-14.51-25.85c-1.13-2.16-3.39-3.49-5.83-3.44l-12.83-.06c-1.74-.25-3.35.96-3.6,2.69-.04.3-.04.6,0,.9l.06,25.79c0,1.16-.95,2.1-2.11,2.1l-32.18-.43c-1.1.13-2.1-.65-2.24-1.75-.02-.16-.02-.32,0-.48v-109.47c-.3-1.96,1.03-3.79,2.99-4.09.37-.06.74-.06,1.1,0,20.21.33,40.07.62,59.58.87,38.12.56,64.26,42.88,30.76,72.11-1.69,1.24-2.1,3.6-.93,5.34ZM477.01,190.28v27.15c0,2.05,1.67,3.72,3.72,3.72h14.82c13.8,0,24.99-7.63,24.99-17.05v-.5c0-9.42-11.19-17.05-24.99-17.05h-14.82c-2.05,0-3.72,1.67-3.72,3.72h0Z"/>
  <rect id="Rectangle_4503" data-name="Rectangle 4503" class="cls-5" x="623.33" y="161.63" width="36.21" height="115.7" rx="2.96" ry="2.96"/>
  <path id="Path_15987" data-name="Path 15987" class="cls-5" d="M967.19,188.17l-.93,16c-.07,1.02.71,1.91,1.73,1.98.04,0,.09,0,.13,0l63.96-.43c1.03,0,1.86.83,1.86,1.86h0v21.7c0,1.03-.83,1.86-1.86,1.86h0l-63.55-.31c-1.03,0-1.86.83-1.86,1.86h0s.12,18.35.12,18.35c0,1.03.83,1.86,1.86,1.86h0l63.61-.43c1.03,0,1.86.83,1.86,1.86h0s-.06,21.08-.06,21.08c0,1.03-.83,1.86-1.86,1.86h-100.11c-1.03,0-1.86-.83-1.86-1.86h0s.07-111.71.07-111.71c0-1.03.83-1.86,1.86-1.86h0l100.01.12c1.03,0,1.86.83,1.86,1.86h0s.06,21.32.06,21.32c0,1.03-.83,1.86-1.86,1.86h0l-63.18-.56c-.99,0-1.81.76-1.86,1.75Z"/>
</svg>