<?xml version="1.0" encoding="UTF-8"?>
<svg id="Layer_1" data-name="Layer 1" xmlns="http://www.w3.org/2000/svg" viewBox="0 0 435.5 336.47">
  <defs>
    <style>
      .cls-1 {
        fill: #4d4d4d;
        stroke-width: 0px;
      }
    </style>
  </defs>
  <path id="check-lg" class="cls-1" d="M385.45,8.7c11.23-11.44,29.61-11.62,41.05-.39.13.13.26.26.39.39,11.33,11.48,11.51,29.89.4,41.59l-234.12,276.71c-10.8,11.85-29.16,12.7-41.01,1.9-.39-.36-.78-.73-1.15-1.11L8.58,183.46c-11.44-11.66-11.44-30.33,0-41.98,11.23-11.44,29.61-11.62,41.05-.39.13.13.26.26.39.39l120.84,122.31L384.65,9.42l.79-.86"/>
</svg>