<?xml version="1.0" encoding="UTF-8"?>
<svg id="Layer_1" data-name="Layer 1" xmlns="http://www.w3.org/2000/svg" viewBox="0 0 518.72 518.83">
  <defs>
    <style>
      .cls-1 {
        stroke-width: 0px;
        fill:#fff;
      }
    </style>
  </defs>
  <g id="Group_2807" data-name="Group 2807">
    <g id="Group_2806" data-name="Group 2806">
      <path id="Path_2059" data-name="Path 2059" class="cls-1" d="M505.35,382.74l-64.46-64.49c-18.05-17.22-46.44-17.22-64.49,0l-10.72,10.72,128.97,128.95,10.72-10.72c17.8-17.79,17.8-46.63.02-64.43-.01-.01-.02-.02-.04-.04Z"/>
    </g>
  </g>
  <g id="Group_2809" data-name="Group 2809">
    <g id="Group_2808" data-name="Group 2808">
      <path id="Path_2060" data-name="Path 2060" class="cls-1" d="M343.56,349.98c-13.54,10.75-32.96,9.75-45.32-2.34l-127.47-127.56c-12.09-12.36-13.09-31.78-2.34-45.32L39.8,46.14c-55.97,64.94-52.52,162.02,7.91,222.83l201.73,201.82c60.62,60.88,158.06,64.33,222.83,7.89l-128.71-128.69Z"/>
    </g>
  </g>
  <g id="Group_2811" data-name="Group 2811">
    <g id="Group_2810" data-name="Group 2810">
      <path id="Path_2061" data-name="Path 2061" class="cls-1" d="M200.07,77.44L135.61,12.91c-18.05-17.22-46.44-17.22-64.49,0l-10.72,10.72,128.97,128.95,10.72-10.72c17.78-17.8,17.77-46.64-.02-64.42Z"/>
    </g>
  </g>
</svg>