<?xml version="1.0" encoding="UTF-8"?>
<svg id="Layer_1" data-name="Layer 1" xmlns="http://www.w3.org/2000/svg" viewBox="0 0 383.23 385.55">
  <defs>
    <style>
      .cls-1 {
        stroke-width: 0px;
        fill:#fff;
      }
    </style>
  </defs>
  <path id="Path_15992" data-name="Path 15992" class="cls-1" d="M281.15,231.5c-3.85-1.92-28.86-13.48-32.73-15.4-3.81-2.27-8.7-1.46-11.56,1.92-3.85,3.85-11.56,15.4-15.4,19.25-1.92,3.85-5.77,3.85-9.63,1.92-13.87-5.82-26.84-13.6-38.51-23.11-10.01-10.02-19.04-20.99-26.96-32.73-1.47-3.29-.7-7.15,1.92-9.63,1.92-1.92,3.85-5.77,7.71-7.71,2.03-2.12,3.37-4.81,3.85-7.71,1.93-2.21,1.93-5.5,0-7.71-5.77-11.26-10.91-22.84-15.4-34.67-1.92-13.48-5.77-13.48-9.63-13.48h-9.64c-4.35.72-8.37,2.73-11.56,5.77-11.11,10.51-17.39,25.15-17.34,40.44,1.78,18.12,8.43,35.42,19.25,50.07,20.13,30.55,48.05,55.17,80.89,71.31,8.66,4.06,17.69,7.28,26.96,9.63,9.88,3.57,20.57,4.23,30.82,1.92,13.68-2.8,25.56-11.2,32.75-23.16,3.48-7.2,4.17-15.43,1.92-23.11l-7.71-3.85M329.3,56.25c-74.94-74.97-196.48-75-271.45-.06C-3.41,117.43-16.07,212.11,26.96,287.29L0,385.55l102.06-26.95c92.31,50.2,207.84,16.05,258.04-76.26,15.23-28.01,23.18-59.4,23.11-91.28.85-50.35-18.58-98.92-53.92-134.79M277.3,325.85c-25.37,16.05-54.71,24.71-84.72,25.03-28.31-.16-56.12-7.42-80.89-21.14l-5.77-3.85-59.7,15.4,15.4-57.73-3.85-5.77C11.4,202.17,34.61,103.33,109.77,56.25c72.97-46.48,169.8-25.01,216.28,47.96.45.7.89,1.4,1.32,2.11,46.85,74.21,24.67,172.34-49.53,219.2-.18.11-.36.23-.54.34"/>
</svg>