<?xml version="1.0" encoding="UTF-8"?>
<svg id="Layer_1" data-name="Layer 1" xmlns="http://www.w3.org/2000/svg" xmlns:xlink="http://www.w3.org/1999/xlink" viewBox="0 0 517.89 509.7">
  <defs>
    <style>
      .cls-1 {
        clip-path: url(#clippath);
      }

      .cls-2 {
        fill: none;
      }

      .cls-2, .cls-3 {
        stroke-width: 0px;
      }

      .cls-3 {
        fill: #4d4d4d;
      }
    </style>
    <clipPath id="clippath">
      <rect class="cls-2" x=".02" y=".29" width="517.85" height="509.4"/>
    </clipPath>
  </defs>
  <g class="cls-1">
    <g id="Group_3791" data-name="Group 3791">
      <path id="Path_2885" data-name="Path 2885" class="cls-3" d="M414.65,177.33c12.12,3.77,21.32,13.7,24.13,26.08,7.76,23.52.74,49.39-17.84,65.76-4.01,2.28-8.2,4.23-12.53,5.83-1.57.78-3.7,2.08-4.02,3.48-8.78,37.84-29.7,71.76-59.58,96.59-.24.22-.32.65-1.11,2.38,3.11,2.5,6.51,4.61,10.12,6.29,25.51,8.48,51.29,16.41,76.75,24.81,43.44,11.98,76.77,46.87,86.74,90.81,1.81,7.26-.54,10.15-7.96,10.31h-2.7c-13.69,0-13.5,0-17.95-13.23-9.02-28.35-31.12-50.64-59.39-59.9-26.67-9.69-53.77-18.14-80.82-26.78-15.51-5.03-32.41-3.46-46.73,4.35-12.28,6.32-24.62,12.53-37.09,18.9,8.77,5.02,17.84,10.18,26.83,15.41,10.29,5.99,11.23,15.66,1.3,22.19-8.52,4.3-12.38,14.38-8.91,23.27.84,3.26,1.48,6.57,1.92,9.91.62,3.59-.46,5.91-4.54,5.89h-44.41c-4.1,0-5.16-2.43-4.62-5.91.76-4.81,1.43-9.64,2.7-14.33,2.02-6.11-.55-12.8-6.15-15.98-1.54-1.03-3.02-2.21-4.48-3.37-5.63-3.36-7.48-10.65-4.12-16.29,1.27-2.13,3.17-3.8,5.44-4.8,8.34-4.94,16.85-9.66,25.27-14.5.94-.54,1.84-1.16,2.43-1.57-12.17-6.18-24.3-12.2-36.47-18.49-14.98-8.16-32.7-9.66-48.83-4.13-25.02,8.1-50.1,16.2-75.02,24.73-31.97,9.23-56.72,34.6-65.17,66.79-.89,4.62-4.99,7.91-9.69,7.77-3.54,0-7.1.16-10.66,0-5.99-.22-8.45-3.35-7.13-9.18,5.97-27.92,21.68-52.8,44.33-70.19,17.22-12.3,36.57-21.29,57.07-26.51,20.86-6.46,41.64-13.16,62.36-20.11,3.25-1.39,6.31-3.19,9.1-5.37-6.18-7.02-11.5-13.25-17.06-19.3-20.62-22.14-35.08-49.29-41.95-78.75-.68-3.78-3.11-7.02-6.56-8.72-11.79-7.29-19.8-19.37-21.92-33.07-5.34-17.12-1.98-35.77,9.02-49.94,4.54-4.88,6.03-11.86,3.89-18.17-8.94-39.75,3.03-81.32,31.75-110.22C168.99,17.16,225.71-4.8,283.15.88c23.48.77,46.3,7.94,66,20.73,12.09,8.29,21.76,19.65,28.02,32.91.92,2.12,2.54,3.87,4.59,4.94,23.77,8.81,40.51,30.32,43.19,55.53,3.68,21.36.02,43.34-10.37,62.36M162,279.45h0v30.29c-1.18,23.1,15.23,43.38,38.06,47.05,37.72,7.19,76.44,7.42,114.24.67,22.74-2.3,40.38-20.9,41.47-43.73.59-23.35,0-46.7.32-70.05.67-4.23-2.21-8.2-6.44-8.87-.4-.06-.8-.1-1.2-.1-12.55-1.7-25.08-3.83-37.79-5.24-46.69-5.06-93.88-3.34-140.08,5.1-8.1,1.43-8.8,2.48-8.8,10.8v34.15M262.31,121.55l-1.97-1.19c-43.39,11.62-84.16,31.39-120.16,58.26-2.65,4.15-3.23,9.29-1.57,13.93,5.91,7.77,11.88,15.5,17.79,23.19,67.74-14.02,137.64-14.02,205.38,0,2.36-5.41,5.52-10.45,9.37-14.93,7.49-6.82,10.88-17.05,8.94-27-.22-2.4,0-4.86,0-7.29.15-11.3-3.37-22.33-10.04-31.45-8.27-9.93-18.66-17.89-30.4-23.3-2.75-2.02-6.59-1.61-8.85.94-20.1,17.49-44,30.04-69.81,36.66-2.89.76-5.97.31-8.53-1.24-3.16-2.48-.46-5.56,1.03-8.42,3.13-5.97,5.89-12.09,8.8-18.17M377.12,270.57h1.35c.27-1.24.65-2.48.81-3.73,1.51-11.58,6.64-18.9,20.03-18.6,5.3.21,10.06-3.24,11.5-8.34,2.06-6.72,3.32-13.66,3.73-20.68.25-6.5-4.38-12.17-10.8-13.23-6.26-1.21-12.98-2.48-17.57,4.32-6.51,8.25-9.79,18.58-9.23,29.07.94,10.29.19,20.73.19,31.1M139.32,270.25h1.46c0-9.8-.22-19.6,0-29.4.5-12.46-4.33-24.55-13.28-33.23-5.51-5.67-10.04-4.86-14.09,1.78-1.08,1.74-1.81,3.67-2.13,5.7-1.92,9.44-.22,19.25,4.78,27.48,1.96,3.08,4.84,5.46,8.23,6.8,7.96,1.65,13.76,8.53,14.04,16.66.21,1.43.55,2.84,1,4.21M215.53,382.25c1.79,1.57,3.7,2.98,5.72,4.24,11.55,6.05,23.14,12.04,34.88,17.74,1.99.73,4.19.66,6.13-.22,11.2-5.4,22.33-11.2,33.37-16.98,2.37-1.44,4.65-3.03,6.8-4.78h-86.9Z"/>
      <path id="Path_2886" data-name="Path 2886" class="cls-3" d="M258.4,324.4h-49.83c-6.24,0-9.75-2.7-9.72-7.53.03-4.83,3.48-7.51,9.75-7.53h100.77c6.32,0,9.72,2.7,9.72,7.53s-3.48,7.51-9.75,7.51h-50.94"/>
      <path id="Path_2887" data-name="Path 2887" class="cls-3" d="M258.42,284.09h-50.4c-5.78,0-9.23-2.97-9.18-7.5.05-4.54,3.56-7.48,9.29-7.48h101.83c6.83,0,10.8,4.72,8.58,10.26-1.39,3.41-4.96,5.39-8.58,4.78h-51.53"/>
    </g>
  </g>
</svg>