<?xml version="1.0" encoding="UTF-8"?>
<svg id="Layer_1" data-name="Layer 1" xmlns="http://www.w3.org/2000/svg" xmlns:xlink="http://www.w3.org/1999/xlink" viewBox="0 0 450.05 548.82">
  <defs>
    <style>
      .cls-1 {
        clip-path: url(#clippath);
      }

      .cls-2 {
        fill: none;
      }

      .cls-2, .cls-3 {
        stroke-width: 0px;
      }

      .cls-3 {
        fill: #4d4d4f;
      }
    </style>
    <clipPath id="clippath">
      <rect class="cls-2" x=".08" y=".35" width="449.97" height="548.35"/>
    </clipPath>
  </defs>
  <g id="Group_3800" data-name="Group 3800">
    <g class="cls-1">
      <g id="Group_3799" data-name="Group 3799">
        <path id="Path_2893" data-name="Path 2893" class="cls-3" d="M332.2,177.44h91.86c20.52,0,25.89,5.41,25.92,26.12v143.35c0,18.76-5.73,24.48-24.29,24.58h-93.46v17.8c0,35.72.19,71.4,0,107.12,2.69,26.09-16.27,49.43-42.37,52.12-3.09.32-6.2.33-9.29.05-76.11.15-152.23.15-228.36,0-26.04,2.65-49.31-16.31-51.96-42.35-.33-3.24-.33-6.51.01-9.75C.15,348.5.14,200.48.24,52.42-2.39,26.24,16.7,2.87,42.89.24c3.59-.36,7.22-.31,10.8.14h225.19c26.33-3.13,50.21,15.68,53.33,42.01.46,3.89.45,7.81-.05,11.69v123.35M17.72,95.92v347.23h297.2v-71.5h-17.6c-37.25,0-74.52,0-111.8,0-22.4,0-27.52-5.34-27.52-28.13v-137.02c0-23.84,4.99-28.8,28.32-29h128.53v-81.58H17.72ZM176.11,354.04h257.1v-100.56H176.11v100.56ZM17.14,460.72c0,15.71-.96,30.34.26,44.81,1.17,15.5,14.26,27.38,29.8,27.04,79.18.38,158.36.38,237.54,0,14.46,1.16,27.31-9.16,29.32-23.52,1.3-16.08,1.47-32.23.51-48.33H17.14ZM16.66,77.42h299.03v-18.95c.1-32.23-9.83-42.09-42.06-42.09H53.63c-17.56-2.79-34.06,9.19-36.85,26.75-.5,3.15-.53,6.35-.09,9.51v24.77M175.44,215.4h257.61v-20.87H175.41l.03,20.87Z"/>
        <path id="Path_2894" data-name="Path 2894" class="cls-3" d="M196.53,292.72v-15.3h96.3c4.22,11.01,1.7,16-11.36,15.52-27.72-.7-55.47-.22-84.94-.22"/>
        <path id="Path_2895" data-name="Path 2895" class="cls-3" d="M187.54,496.92c-.88,11.74-11.11,20.54-22.85,19.67-10.96-.82-19.49-9.83-19.72-20.82.88-11.74,11.11-20.54,22.85-19.67,10.96.82,19.49,9.83,19.72,20.82"/>
        <rect id="Rectangle_2586" data-name="Rectangle 2586" class="cls-3" x="117.9" y="40.49" width="96.66" height="14.63"/>
      </g>
    </g>
  </g>
</svg>