<?xml version="1.0" encoding="UTF-8"?>
<svg id="Layer_1" data-name="Layer 1" xmlns="http://www.w3.org/2000/svg" xmlns:xlink="http://www.w3.org/1999/xlink" viewBox="0 0 376.69 411.1">
  <defs>
    <style>
      .cls-1 {
        clip-path: url(#clippath);
      }

      .cls-2 {
        fill: none;
      }

      .cls-2, .cls-3 {
        stroke-width: 0px;
      }

      .cls-3 {
        fill: #4d4d4f;
      }
    </style>
    <clipPath id="clippath">
      <rect class="cls-2" width="376.51" height="411.1"/>
    </clipPath>
  </defs>
  <g id="Group_3810" data-name="Group 3810">
    <g class="cls-1">
      <g id="Group_3809" data-name="Group 3809">
        <path id="Path_2911" data-name="Path 2911" class="cls-3" d="M191.08,0c6.49,3.26,13.25,6.06,19.41,9.94,31.95,19.59,67.63,32.28,104.77,37.28,11.11,1.52,22.37,2.01,33.57,2.49,14.21-.58,26.19,10.47,26.77,24.68.01.31.02.61.02.92,4.34,57.77-4.47,115.78-25.77,169.66-24.82,65.99-72.25,121.03-133.85,155.34-4.97,2.78-10.24,5.17-15.36,7.8-7.58,3.99-16.64,3.99-24.23,0-43.16-20.32-80.51-51.17-108.62-89.71-29.16-39.92-49.27-85.71-58.92-134.19C4.24,162.52,1.5,140.49.7,118.34c-.14-1.45-.37-2.9-.7-4.32v-16.85c.55-7.7,1.24-15.41,1.62-23.11.49-13.14,10.95-23.72,24.08-24.35,11.73-.65,23.51-1.12,35.16-2.49,37.19-4.66,72.94-17.28,104.82-37,6.21-4.66,13.23-8.12,20.7-10.21h4.7ZM349.97,75.72c-1.86,0-3.45,0-4.97-.22-11.51-.94-23.06-1.07-34.37-2.68-41.63-5.73-81.5-20.51-116.8-43.31-3.01-2.47-7.35-2.47-10.36,0-45.04,29.05-97.26,45.01-150.84,46.1-1.94,0-3.88.4-5.89.62-.32,7.11-.8,13.79-.87,20.45-.24,21.53,1.32,43.04,4.65,64.31,5.8,39.02,18.6,76.67,37.8,111.13,26.28,48.29,66.94,87.21,116.35,111.33,2.43,1.47,5.47,1.47,7.9,0,10.96-6.39,22.37-12.03,32.88-19.09,42.36-29.1,75.61-69.59,95.92-116.8,22.9-52.21,33.03-109.12,29.55-166.03,0-1.84-.5-3.65-.8-5.72"/>
        <path id="Path_2912" data-name="Path 2912" class="cls-3" d="M163.67,237.6l89.14-91.95c2.96-4.1,7.97-6.19,12.97-5.42,6.97,1.32,11.55,8.04,10.24,15.01-.29,1.51-.84,2.96-1.64,4.27-.84,1.36-1.85,2.62-2.98,3.75-32.21,33.22-64.42,66.43-96.64,99.63-8.23,8.47-14.31,8.5-22.49,0-15.49-15.89-30.97-31.8-46.45-47.74-3.47-3.04-5.31-7.53-4.97-12.13.31-4.97,3.64-9.24,8.37-10.76,4.65-1.78,9.92-.48,13.22,3.26,10.92,11.2,21.83,22.42,32.73,33.65,2.71,2.76,5.57,5.39,8.55,8.25"/>
      </g>
    </g>
  </g>
</svg>